<?xml version="1.0" encoding="UTF-8"?>
<svg width="207px" height="32px" viewBox="0 0 207 32" version="1.1" xmlns="http://www.w3.org/2000/svg" xmlns:xlink="http://www.w3.org/1999/xlink">
    <title>metrifi-logo-w-purple-icon</title>
    <g id="MetriFi-brand" stroke="none" stroke-width="1" fill="none" fill-rule="evenodd">
        <g id="metrifi-logo-w-purple-icon" transform="translate(-7, -8)" fill-rule="nonzero">
            <g transform="translate(7, 8)">
                <g id="type" transform="translate(69.4942, 0)" fill="#2B0F52">
                    <polygon id="m" points="0 31.372549 0 0 7.17086835 0 15.5070028 28.9971989 16.0896359 28.9971989 24.4257703 0 31.5966387 0 31.5966387 31.372549 27.9663866 31.372549 27.9663866 2.46498599 27.3389356 2.46498599 19.047619 31.372549 12.5490196 31.372549 4.25770308 2.46498599 3.6302521 2.46498599 3.6302521 31.372549"></polygon>
                    <path d="M48.13904,32 C45.9280223,32 43.9859121,31.5294118 42.3127095,30.5882353 C40.6395068,29.6470588 39.339787,28.32493 38.4135498,26.6218487 C37.4873126,24.9187675 37.0241941,22.9467787 37.0241941,20.7058824 L37.0241941,20.1680672 C37.0241941,17.8972923 37.4873126,15.9103641 38.4135498,14.2072829 C39.339787,12.5042017 40.6245675,11.1820728 42.2678915,10.2408964 C43.9112155,9.29971989 45.7935685,8.82913165 47.9149504,8.82913165 C49.976575,8.82913165 51.7991707,9.26984127 53.3827375,10.1512605 C54.9663042,11.0326797 56.2062669,12.2950514 57.1026254,13.9383754 C57.998984,15.5816993 58.4471632,17.5088702 58.4471632,19.719888 L58.4471632,21.3333333 L40.5648103,21.3333333 C40.6544462,23.6937442 41.4163509,25.5387488 42.8505246,26.8683473 C44.2846983,28.1979458 46.0774153,28.8627451 48.2286758,28.8627451 C50.1110288,28.8627451 51.5601418,28.4295051 52.5760148,27.5630252 C53.5918878,26.6965453 54.3687319,25.665733 54.906547,24.4705882 L57.954166,25.9495798 C57.5059868,26.875817 56.8860054,27.8020542 56.0942221,28.7282913 C55.3024387,29.6545285 54.2716264,30.4313725 53.0017851,31.0588235 C51.7319438,31.6862745 50.1110288,32 48.13904,32 Z M40.6096282,18.4201681 L54.8617291,18.4201681 C54.7422146,16.388422 54.0475367,14.8048553 52.7776955,13.6694678 C51.5078542,12.5340803 49.8869392,11.9663866 47.9149504,11.9663866 C45.9130829,11.9663866 44.2697589,12.5340803 42.9849784,13.6694678 C41.7001978,14.8048553 40.9084144,16.388422 40.6096282,18.4201681 Z" id="e"></path>
                    <path d="M70.9985725,31.372549 C69.7436705,31.372549 68.7800851,31.0289449 68.1078162,30.3417367 C67.4355473,29.6545285 67.0994128,28.713352 67.0994128,27.5182073 L67.0994128,12.5490196 L60.5111775,12.5490196 L60.5111775,9.45658263 L67.0994128,9.45658263 L67.0994128,1.65826331 L70.6400291,1.65826331 L70.6400291,9.45658263 L77.8108974,9.45658263 L77.8108974,12.5490196 L70.6400291,12.5490196 L70.6400291,26.9803922 C70.6400291,27.8767507 71.073269,28.32493 71.9397489,28.32493 L76.824903,28.32493 L76.824903,31.372549 L70.9985725,31.372549 Z" id="t"></path>
                    <path d="M82.7589305,31.372549 L82.7589305,9.45658263 L86.2099109,9.45658263 L86.2099109,12.1456583 L86.8373619,12.1456583 C87.2257839,11.1895425 87.8233563,10.487395 88.630079,10.0392157 C89.4368017,9.59103641 90.4974926,9.36694678 91.8121518,9.36694678 L94.4115916,9.36694678 L94.4115916,12.5938375 L91.5880622,12.5938375 C90.0044954,12.5938375 88.7271845,13.0345472 87.7561294,13.9159664 C86.7850743,14.7973856 86.2995468,16.1643324 86.2995468,18.0168067 L86.2995468,31.372549 L82.7589305,31.372549 Z" id="r"></path>
                    <path d="M98.8473233,31.372549 L98.8473233,9.45658263 L102.38794,9.45658263 L102.38794,31.372549 L98.8473233,31.372549 Z M100.64004,6.05042017 C99.8631963,6.05042017 99.2133364,5.79645191 98.6904606,5.28851541 C98.1675847,4.7805789 97.9061468,4.13818861 97.9061468,3.36134454 C97.9061468,2.55462185 98.1675847,1.89729225 98.6904606,1.38935574 C99.2133364,0.881419234 99.8631963,0.62745098 100.64004,0.62745098 C101.416884,0.62745098 102.059275,0.881419234 102.567211,1.38935574 C103.075148,1.89729225 103.329116,2.55462185 103.329116,3.36134454 C103.329116,4.13818861 103.075148,4.7805789 102.567211,5.28851541 C102.059275,5.79645191 101.416884,6.05042017 100.64004,6.05042017 Z" id="i"></path>
                    <polygon id="f" points="108.879467 31.372549 108.879467 0 127.83745 0 127.83745 3.40616246 112.644173 3.40616246 112.644173 13.9383754 126.627366 13.9383754 126.627366 17.3445378 112.644173 17.3445378 112.644173 31.372549"></polygon>
                    <path d="M132.400947,31.372549 L132.400947,9.45658263 L135.941563,9.45658263 L135.941563,31.372549 L132.400947,31.372549 Z M134.193664,6.05042017 C133.41682,6.05042017 132.76696,5.79645191 132.244084,5.28851541 C131.721209,4.7805789 131.459771,4.13818861 131.459771,3.36134454 C131.459771,2.55462185 131.721209,1.89729225 132.244084,1.38935574 C132.76696,0.881419234 133.41682,0.62745098 134.193664,0.62745098 C134.970508,0.62745098 135.612899,0.881419234 136.120835,1.38935574 C136.628772,1.89729225 136.88274,2.55462185 136.88274,3.36134454 C136.88274,4.13818861 136.628772,4.7805789 136.120835,5.28851541 C135.612899,5.79645191 134.970508,6.05042017 134.193664,6.05042017 Z" id="i"></path>
                </g>
                <g id="mark" transform="translate(0, 0)" fill="#884DFF">
                    <path d="M31.2547602,0.908536082 C32.376359,-0.113157843 33.8166407,-0.0448414201 34.8279709,1.04991494 C35.1244854,1.36978124 35.3498779,1.71949014 35.5692099,2.05723187 C37.5066766,5.04066893 39.4427522,8.02545109 41.3786654,11.009897 L51.8779475,27.1862167 C51.9271812,27.2620299 51.9766488,27.3354825 52.0278557,27.4095725 C52.1803263,27.6334731 52.3383539,27.8652503 52.4648835,28.1355942 C52.664422,28.5639372 52.7822557,28.9419714 52.825504,29.2929035 C52.9225209,30.0776764 52.6367,30.8291417 52.0698372,31.3212918 L51.5511249,31.6581474 L51.4736699,31.6926089 C50.5490821,32.0789335 49.6690062,31.9668931 48.9805939,31.3798106 L48.9075757,31.3150924 C48.5811402,31.0137736 48.2672108,30.6296781 47.9469579,30.1392528 C45.6819099,26.6595474 43.4237743,23.177562 41.1656548,19.6942409 L38.2381147,15.182143 C36.5585195,12.5957932 34.8810832,10.0093667 33.1988774,7.42647941 C33.1078597,7.2876849 33.0026459,7.15015805 32.8963588,7.01642038 C32.8316916,7.07873606 32.7835007,7.14669647 32.7379206,7.21119448 L31.3179369,9.27127971 C29.9292531,11.2836503 28.5402586,13.2962227 27.1493231,15.3078468 C23.7824723,20.1730515 20.4159483,25.0367187 17.0448441,29.8967341 C16.7831095,30.2725601 16.5472737,30.5542617 16.3003548,30.783525 C16.1984916,30.8797145 16.0859305,30.9682736 15.9663071,31.0459579 C15.1301866,31.5889409 14.0033403,31.5618043 13.2248593,30.979336 C12.3293713,30.3085235 12.0155554,29.1300955 12.4630617,28.115902 C12.6744881,27.6340384 12.9590801,27.1947766 13.2102024,26.8298181 C15.9795682,22.812482 18.752909,18.7978656 21.529805,14.786683 C23.6003181,11.7917139 25.6739223,8.79606277 27.7482246,5.80216694 L30.2473789,2.19045785 C30.4041694,1.9618559 30.5626223,1.73173258 30.7309661,1.50799673" id="arch"></path>
                    <path d="M19.0061068,0.736549787 C19.6217203,0.141072333 20.4609837,-0.116816906 21.2202238,0.0496531667 C21.8469154,0.189556103 22.3962287,0.593955831 22.7669149,1.18857058 C23.2351042,1.93808849 23.2646185,2.74675321 22.8516893,3.52645414 C22.7023774,3.81027684 22.5310745,4.07707197 22.3569362,4.33452675 L18.7232686,9.60025487 L18.7232686,9.60025487 L13.0801288,17.7675014 C10.3993038,21.642965 7.71888238,25.5190499 5.03518425,29.3941706 C4.78369064,29.7558363 4.49313169,30.1274102 4.14570042,30.5284078 C4.01034253,30.6838973 3.85767637,30.817496 3.69300009,30.9244381 C3.31890529,31.1673781 2.86900655,31.2881484 2.3530287,31.2818448 C1.66906371,31.2766093 1.01835423,30.9723042 0.573501876,30.4577004 L0.219038896,29.9118753 C-0.0335142186,29.3750595 -0.0705224158,28.767505 0.122857288,28.1906698 C0.292702763,27.6801492 0.584432432,27.2199076 0.847070696,26.8373104 L4.17504888,22.0086696 L4.17504888,22.0086696 L13.6978621,8.22441255 L13.6978621,8.22441255 L18.0272934,1.96723018 C18.3023637,1.56772453 18.6133179,1.11531871 19.0061068,0.736549787 Z" id="left"></path>
                    <path d="M34.2445151,18.550735 C33.8001253,18.0861486 33.2096415,17.823781 32.5243213,17.7908642 C32.0648421,17.7941674 31.6155735,17.930873 31.2240789,18.1851126 C30.5439348,18.6268033 30.1316009,19.3570839 30.1216771,20.1383505 C30.1125881,20.7052701 30.2583678,21.2202088 30.5531039,21.6706615 C30.7240254,21.9324971 30.893563,22.1983238 31.0653041,22.4689039 C31.2049019,22.6865865 31.3425426,22.9046567 31.4831814,23.1212215 L32.6470942,24.9168911 C33.7632947,26.63841 34.8794951,28.3599289 36.0066311,30.0778801 C36.3962509,30.6703595 36.7333079,31.0880277 37.0990206,31.4301015 C37.8269514,32.1143098 39.0440736,32.196791 39.9637751,31.5995299 L39.9693679,31.5958979 C40.9097123,30.9569593 41.291408,29.7672813 40.8785527,28.7662571 C40.6868735,28.2996793 40.4278791,27.8763747 40.2230911,27.5596684 C38.471808,24.8506847 36.7129428,22.1483919 34.9490295,19.4471687 C34.7321795,19.11665 34.4950491,18.8147627 34.2445151,18.550735" id="center"></path>
                </g>
            </g>
        </g>
    </g>
</svg>