<svg xmlns="http://www.w3.org/2000/svg" width="207" height="32"><g fill="none" fill-rule="nonzero"><g fill="#2B0F52"><path d="M69.62 31.368V-.005h7.171l8.336 28.997h.583L94.046-.005h7.171v31.373h-3.631V2.46h-.627l-8.291 28.908h-6.499L73.878 2.46h-.628v28.908zM117.759 31.995c-2.211 0-4.153-.47-5.826-1.411a9.866 9.866 0 0 1-3.9-3.967c-.926-1.703-1.389-3.675-1.389-5.916v-.537c0-2.271.463-4.258 1.39-5.961.926-1.703 2.21-3.025 3.854-3.967 1.643-.94 3.526-1.411 5.647-1.411 2.062 0 3.884.44 5.468 1.322 1.583.881 2.823 2.144 3.72 3.787.896 1.643 1.344 3.57 1.344 5.781v1.614h-17.882c.09 2.36.851 4.205 2.286 5.535 1.434 1.33 3.226 1.994 5.378 1.994 1.882 0 3.331-.433 4.347-1.3a8.732 8.732 0 0 0 2.33-3.092l3.048 1.48c-.448.925-1.068 1.852-1.86 2.778-.792.926-1.822 1.703-3.092 2.33-1.27.628-2.891.941-4.863.941Zm-7.53-13.58h14.253c-.12-2.031-.814-3.615-2.084-4.75-1.27-1.135-2.891-1.703-4.863-1.703-2.002 0-3.645.568-4.93 1.703-1.285 1.135-2.077 2.719-2.375 4.75ZM140.619 31.368c-1.255 0-2.219-.344-2.891-1.03-.672-.688-1.009-1.63-1.009-2.824v-14.97h-6.588V9.453h6.588V1.654h3.541v7.798h7.17v3.093h-7.17v14.43c0 .897.433 1.345 1.3 1.345h4.885v3.048h-5.826ZM152.379 31.368V9.452h3.45v2.69h.628c.389-.957.986-1.66 1.793-2.107.807-.448 1.867-.673 3.182-.673h2.6v3.227h-2.824c-1.584 0-2.86.441-3.832 1.322-.97.882-1.456 2.249-1.456 4.101v13.356h-3.541ZM168.467 31.368V9.452h3.54v21.916h-3.54Zm1.793-25.322c-.777 0-1.427-.254-1.95-.762-.522-.508-.784-1.15-.784-1.927 0-.807.262-1.464.784-1.972.523-.508 1.173-.762 1.95-.762.777 0 1.42.254 1.927.762.508.508.762 1.165.762 1.972 0 .777-.254 1.42-.762 1.927-.508.508-1.15.762-1.927.762ZM178.499 31.368V-.005h18.958v3.406h-15.193v10.532h13.983v3.407h-13.983v14.028zM202.02 31.368V9.452h3.542v21.916h-3.541Zm1.794-25.322c-.777 0-1.427-.254-1.95-.762-.523-.508-.784-1.15-.784-1.927 0-.807.261-1.464.784-1.972s1.173-.762 1.95-.762c.777 0 1.419.254 1.927.762s.762 1.165.762 1.972c0 .777-.254 1.42-.762 1.927-.508.508-1.15.762-1.927.762Z"/></g><g fill="#96F"><path d="M31.38.904c1.122-1.022 2.562-.953 3.574.141.296.32.522.67.741 1.008l5.81 8.952 10.499 16.177c.049.076.098.149.15.223.152.224.31.456.437.726.2.428.317.806.36 1.157a2.292 2.292 0 0 1-.755 2.029l-.52.337-.077.034c-.924.386-1.804.274-2.493-.313l-.073-.064c-.326-.302-.64-.686-.96-1.176-2.265-3.48-4.523-6.962-6.782-10.445l-2.927-4.512c-1.68-2.587-3.357-5.173-5.04-7.756a5.664 5.664 0 0 0-.302-.41 1.3 1.3 0 0 0-.158.195l-1.42 2.06a7878.324 7878.324 0 0 1-4.169 6.036c-3.367 4.866-6.733 9.73-10.104 14.59a5.374 5.374 0 0 1-.745.886 2.362 2.362 0 0 1-.334.262c-.836.543-1.963.516-2.741-.066a2.371 2.371 0 0 1-.762-2.864c.211-.481.496-.92.747-1.286a7367.87 7367.87 0 0 1 8.32-12.043c2.07-2.995 4.144-5.99 6.218-8.984l2.5-3.612c.156-.229.314-.459.483-.683M19.132.732c.616-.595 1.455-.853 2.214-.687.627.14 1.176.544 1.547 1.14.468.749.497 1.557.084 2.337-.149.284-.32.55-.494.808l-3.634 5.266-5.643 8.167c-2.68 3.875-5.361 7.752-8.045 11.627a13.5 13.5 0 0 1-.89 1.134 2.17 2.17 0 0 1-.452.396c-.374.243-.824.364-1.34.357a2.383 2.383 0 0 1-1.78-.824l-.354-.546a2.298 2.298 0 0 1-.096-1.72c.17-.511.461-.972.724-1.354L4.3 22.004 13.824 8.22l4.33-6.257c.274-.4.585-.852.978-1.231Z"/><path d="M34.37 18.546c-.444-.464-1.035-.727-1.72-.76-.46.004-.909.14-1.3.395a2.374 2.374 0 0 0-1.103 1.953c-.009.567.137 1.082.432 1.532.17.262.34.528.512.798.14.218.277.436.418.653l1.164 1.795c1.116 1.722 2.232 3.443 3.36 5.161.389.593.726 1.01 1.092 1.353.728.684 1.945.766 2.865.169l.005-.004c.94-.639 1.322-1.828.91-2.83a7.547 7.547 0 0 0-.656-1.206c-1.751-2.709-3.51-5.411-5.274-8.112a6.423 6.423 0 0 0-.705-.897"/></g></g></svg>