<?xml version="1.0" encoding="UTF-8"?>
<svg width="32px" height="32px" viewBox="0 0 32 32" version="1.1" xmlns="http://www.w3.org/2000/svg" xmlns:xlink="http://www.w3.org/1999/xlink">
    <title>Artboard</title>
    <g id="Artboard" stroke="none" stroke-width="1" fill="none" fill-rule="evenodd">
        <g id="metrifi-purple-icon" transform="translate(0, 6)" fill="#9966FF" fill-rule="nonzero">
            <path d="M18.9264511,0.550175381 C19.6056399,-0.0685241463 20.4778085,-0.0271542825 21.0902238,0.635789116 C21.2697794,0.829488152 21.4062668,1.04125875 21.5390842,1.24578247 C22.7123253,3.05244008 23.884724,4.85991222 25.0570243,6.66718075 L31.4149086,16.4629533 C31.4447223,16.508863 31.4746776,16.5533431 31.5056861,16.5982092 C31.5980153,16.733795 31.6937096,16.8741506 31.7703302,17.0378608 C31.8911615,17.2972492 31.9625162,17.5261725 31.9887054,17.7386839 C32.0474544,18.2139129 31.8743744,18.6689721 31.5311082,18.9669998 L31.2169998,19.1709869 L31.1700966,19.1918555 C30.6102086,19.4257992 30.0772749,19.3579517 29.660404,19.0024365 L29.6161875,18.9632456 C29.4185131,18.7807783 29.2284119,18.5481844 29.0344814,18.2512013 C27.6628721,16.1440222 26.2954486,14.0354624 24.9280348,11.9260938 L23.1552507,9.19373647 C22.1381647,7.62754002 21.1223862,6.06129712 20.1037194,4.49719744 C20.0486032,4.41314869 19.9848906,4.32986758 19.920528,4.24888106 C19.8813685,4.2866171 19.8521863,4.32777138 19.8245851,4.36682896 L18.964708,5.61433932 C18.1237847,6.83295548 17.2826732,8.05169386 16.4403864,9.26985797 C14.4015758,12.2160435 12.3629631,15.161298 10.3215768,18.104341 C10.1630823,18.3319272 10.020271,18.5025151 9.87074819,18.6413484 C9.8090645,18.6995971 9.74090265,18.7532252 9.6684642,18.8002679 C9.16214793,19.129078 8.47978143,19.1126451 8.00836899,18.7599241 C7.46610248,18.3537053 7.27606995,17.6400934 7.54705926,17.0259359 C7.6750894,16.7341374 7.84742528,16.4681369 7.99949344,16.2471317 C9.67649452,13.8143836 11.3559027,11.3832825 13.0374637,8.95426072 C14.2912716,7.14061975 15.5469513,5.32656576 16.8030537,3.51357472 L18.3164271,1.32645913 C18.4113722,1.18802636 18.5073241,1.04867231 18.6092654,0.913186269" id="arch"></path>
            <path d="M11.5092277,0.44602693 C11.882015,0.0854281146 12.3902345,-0.0707399376 12.8499955,0.0300680957 C13.2294912,0.114788068 13.5621302,0.359677378 13.7866008,0.719753772 C14.0701148,1.17363371 14.0879873,1.66333074 13.8379363,2.13548838 C13.7475198,2.30736077 13.6437866,2.46892189 13.5383364,2.62482685 L11.3379538,5.81355434 L11.3379538,5.81355434 L7.92072683,10.7593326 C6.29734201,13.106168 4.67420159,15.4533796 3.04907693,17.8000074 C2.89678392,18.0190186 2.72083473,18.2440298 2.51044627,18.4868589 C2.42847973,18.5810176 2.3360321,18.6619199 2.23631169,18.72668 C2.00977701,18.8737954 1.73733894,18.9469294 1.42488639,18.9432542 C1.01070853,18.9399417 0.616668673,18.755666 0.347286465,18.4440412 L0.132639922,18.11351 C-0.0202946756,17.7884345 -0.0427051445,17.4205222 0.0743967458,17.0712125 C0.177247385,16.7620603 0.353905509,16.4833553 0.512947211,16.2516688 L2.52821835,13.327625 L2.52821835,13.327625 L8.29479782,4.98039582 L8.29479782,4.98039582 L10.9165031,1.19128083 C11.0830731,0.949355185 11.2713727,0.675395186 11.5092277,0.44602693 Z" id="left"></path>
            <path d="M20.7369097,11.2336295 C20.4678076,10.9522934 20.1102376,10.7934134 19.6952391,10.7734802 C19.4169996,10.7754805 19.1449431,10.8582643 18.9078719,11.0122222 C18.4960078,11.2796936 18.2463172,11.7219241 18.2403078,12.1950299 C18.234804,12.5383351 18.3230815,12.8501627 18.5015602,13.1229399 C18.6050624,13.2814978 18.7077266,13.4424725 18.8117251,13.6063256 C18.8962592,13.738146 18.9796081,13.8702012 19.0647725,14.0013447 L19.7695848,15.0887349 C20.4455047,16.1312221 21.1214245,17.1737094 21.8039664,18.2140363 C22.0399023,18.5728196 22.2440086,18.8257438 22.4654675,19.0328908 C22.906269,19.4472217 23.6433025,19.4971692 24.2002316,19.1354903 L24.2036183,19.1332909 C24.7730478,18.7463737 25.0041852,18.0259493 24.754179,17.4197666 C24.6381068,17.1372245 24.4812717,16.8808871 24.3572614,16.6891017 C23.2967646,15.0486427 22.2316764,13.4122356 21.1635313,11.7764761 C21.0322169,11.5763264 20.8886216,11.3935147 20.7369097,11.2336295" id="center"></path>
        </g>
    </g>
</svg>