<?xml version="1.0" encoding="UTF-8"?>
<svg width="192px" height="192px" viewBox="0 0 192 192" version="1.1" xmlns="http://www.w3.org/2000/svg" xmlns:xlink="http://www.w3.org/1999/xlink">
    <title>Group</title>
    <g id="MetriFi-brand" stroke="none" stroke-width="1" fill="none" fill-rule="evenodd">
        <g id="metrifi-purple-icon-in-square" transform="translate(-54, -54)">
            <g id="Group" transform="translate(54, 54)">
                <rect id="Rectangle" fill="#884DFF" x="0" y="0" width="192" height="192" rx="32"></rect>
                <g id="mark" transform="translate(20, 50)" fill="#FFFFFF" fill-rule="nonzero">
                    <path d="M89.7584893,3.07872472 C92.9920214,0.149019206 97.1443057,0.344916428 100.059937,3.48412835 C100.914779,4.4013444 101.564578,5.40413405 102.196905,6.37260786 C107.782557,14.9276083 113.364199,23.4864659 118.945372,32.0443592 L149.214454,78.4299273 C149.356393,78.6473215 149.499007,78.8579467 149.646634,79.0703996 C150.086202,79.7124342 150.54179,80.3770549 150.906571,81.1522656 C151.481834,82.3805384 151.821544,83.4645508 151.946228,84.4708479 C152.225924,86.7211828 151.401912,88.8760082 149.767666,90.2872478 L148.272235,91.2531806 L148.048935,91.3519989 C145.383379,92.459784 142.846149,92.1385084 140.86148,90.4550503 L140.650971,90.269471 C139.709868,89.4054399 138.80482,88.3040467 137.881541,86.897753 C131.351483,76.919704 124.841353,66.935117 118.33127,56.9467 L109.891269,44.0082672 C105.049051,36.5919138 100.213058,29.1753404 95.3633146,21.7689157 C95.1009136,21.3709226 94.7975857,20.9765646 94.4911636,20.5930721 C94.3047302,20.7717622 94.1657974,20.9666386 94.0343915,21.1515865 L89.9406256,27.0588772 C85.9370963,32.8293463 81.9326712,38.6003941 77.9226503,44.3687227 C68.2161312,58.3196885 58.5105542,72.2662456 48.7917726,86.2023311 C48.0372005,87.2800115 47.3572937,88.0877903 46.6454347,88.7452024 C46.3517665,89.0210257 46.0272566,89.2749687 45.6823863,89.4977283 C43.2718786,91.0547311 40.0232181,90.9769169 37.7788832,89.3066901 C35.197221,87.3831365 34.2925002,84.0039963 35.582646,81.0957982 C36.1921813,79.7140552 37.0126506,78.4544728 37.7366279,77.4079549 C45.7206176,65.8882508 53.7160671,54.3763454 61.7217661,42.8742864 C67.6909867,34.2862178 73.6691188,25.6961935 79.6492635,17.1112025 L86.8542424,6.75463312 C87.3062642,6.09911743 87.7630787,5.43923922 88.2484082,4.79767707" id="arch"></path>
                    <path d="M55.0280039,2.11910395 C56.8103774,0.405874718 59.2402801,-0.336090202 61.4384929,0.142855545 C63.2529406,0.54536583 64.8433565,1.70885141 65.9165969,3.41959858 C67.2721361,5.5760127 67.3575883,7.90259623 66.1620426,10.145849 C65.7297428,10.9624262 65.2337729,11.730014 64.7295937,12.4707289 L54.209108,27.6205877 L54.209108,27.6205877 L37.8706374,51.1183127 C30.1088979,62.2682857 22.348327,73.4200461 14.578269,84.5690326 C13.8501246,85.6095694 13.008875,86.6786129 12.0029642,87.8323103 C11.6110651,88.2796642 11.1690538,88.6640368 10.6922699,88.9717165 C9.60916063,89.6706714 8.30657773,90.0181358 6.8126773,90 C4.83240704,89.984937 2.94842079,89.1094305 1.6604486,87.6288803 L0.634178969,86.0585043 C-0.0970330521,84.5140486 -0.204182151,82.7660729 0.355706268,81.1064787 C0.847456502,79.6376761 1.69209562,78.3135297 2.45250698,77.2127715 L12.0879362,63.3204427 L12.0879362,63.3204427 L39.6591483,23.6621955 L39.6591483,23.6621955 L52.1940649,5.65985533 C52.9904704,4.51045034 53.89077,3.20884796 55.0280039,2.11910395 Z" id="left"></path>
                    <path d="M98.0799124,53.1925825 C96.7779769,51.8520335 95.0480278,51.0949804 93.040235,51 C91.6940919,51.0095313 90.377863,51.4039908 89.2308955,52.137591 C87.2382672,53.4120751 86.0302464,55.5192761 86.0011725,57.7735955 C85.9745443,59.4094236 86.4016373,60.8952625 87.26513,62.1950291 C87.7658813,62.9505472 88.2625781,63.7175816 88.7657306,64.4983317 C89.1747123,65.1264477 89.5779603,65.7556822 89.9899919,66.3805729 L93.3999246,71.5619192 C96.6700738,76.5293061 99.9402227,81.496693 103.24241,86.4537854 C104.383885,88.1633655 105.371366,89.3685335 106.4428,90.3555763 C108.575429,92.3298372 112.14125,92.567834 114.835713,90.8444565 L114.852099,90.8339765 C117.60704,88.9903399 118.725299,85.5575627 117.515751,82.6691398 C116.954186,81.3228447 116.195406,80.1014131 115.595435,79.1875673 C110.464675,71.3708828 105.311702,63.5735047 100.143939,55.7792129 C99.50863,54.8255119 98.8139055,53.9544259 98.0799124,53.1925825" id="center"></path>
                </g>
            </g>
        </g>
    </g>
</svg>